<?xml version="1.0" encoding="utf-8"?>
<!-- Generator: Adobe Illustrator 15.0.0, SVG Export Plug-In . SVG Version: 6.00 Build 0)  -->
<!DOCTYPE svg PUBLIC "-//W3C//DTD SVG 1.1//EN" "http://www.w3.org/Graphics/SVG/1.1/DTD/svg11.dtd">
<svg version="1.1" id="Layer_1" xmlns="http://www.w3.org/2000/svg" xmlns:xlink="http://www.w3.org/1999/xlink" x="0px" y="0px"
	 width="120px" height="120px" viewBox="0 0 120 120" enable-background="new 0 0 120 120" xml:space="preserve">
<circle fill="#EF4136" stroke="#FFFFFF" stroke-miterlimit="10" cx="60" cy="60" r="58.746"/>
<path fill="#FFFFFF" d="M64.05,21.326c0,0-7.729,2.071-9.741,9.526c-2.013,7.457-4.237,11.56,4.796,18.568
	c0,0-5.738,7.232-5.223,11.454c0.516,4.217,2.124,9.427,5.762,13.717c3.64,4.289,0.443-2.759-13.782-1.248
	c0,0-6.634,1.485-12.521-2.077c0,0,0.492,0.842-0.352-2.888c0,0,2.329-0.059,2.522-1.657c0,0,1.538-1.765,0.252-2.735
	c0,0,1.328-1.934,0.008-2.795c0,0,0.807-2.523-0.618-3.405c0,0-0.153-2.909-3.058-2.672l-7.372,2.657c0,0-3.282,3.799-1.57,12.026
	c0,0-1.623,8.282,24.237,21.062c0,0,12.277,7.993,25.268,1.019c0,0,1.288-5.781,4.1-8.468c0,0,17.477-15.256,2.064-39.503
	C78.823,43.905,85.633,24.763,64.05,21.326z"/>
</svg>
